<?xml version="1.0" encoding="UTF-8" standalone="no"?>
<!-- Created with Inkscape (http://www.inkscape.org/) -->

<svg
   xmlns:dc="http://purl.org/dc/elements/1.1/"
   xmlns:cc="http://creativecommons.org/ns#"
   xmlns:rdf="http://www.w3.org/1999/02/22-rdf-syntax-ns#"
   xmlns:svg="http://www.w3.org/2000/svg"
   xmlns="http://www.w3.org/2000/svg"
   xmlns:sodipodi="http://sodipodi.sourceforge.net/DTD/sodipodi-0.dtd"
   xmlns:inkscape="http://www.inkscape.org/namespaces/inkscape"
   width="751.30804mm"
   height="751.2854mm"
   viewBox="0 0 2662.1151 2662.0349"
   id="svg2"
   version="1.1"
   inkscape:version="0.91 r13725"
   sodipodi:docname="CancerDrawing7.svg">
  <defs
     id="defs4">
    <pattern
       y="0"
       x="0"
       height="6"
       width="6"
       patternUnits="userSpaceOnUse"
       id="EMFhbasepattern" />
    <linearGradient
       x1="0"
       y1="0"
       x2="1"
       y2="0"
       gradientUnits="userSpaceOnUse"
       gradientTransform="matrix(-142.8026,-148.90491,-148.90491,142.8026,581.30566,466.00293)"
       spreadMethod="pad"
       id="linearGradient772">
      <stop
         style="stop-opacity:1;stop-color:#8fa9c5"
         offset="0"
         id="stop774" />
      <stop
         style="stop-opacity:1;stop-color:#8fa9c5"
         offset="0.039326"
         id="stop776" />
      <stop
         style="stop-opacity:1;stop-color:#195f94"
         offset="0.3237703"
         id="stop778" />
      <stop
         style="stop-opacity:1;stop-color:#195f94"
         offset="0.348315"
         id="stop780" />
      <stop
         style="stop-opacity:1;stop-color:#195f94"
         offset="0.37631051"
         id="stop782" />
      <stop
         style="stop-opacity:1;stop-color:#426aa4"
         offset="0.58427"
         id="stop784" />
      <stop
         style="stop-opacity:1;stop-color:#426aa4"
         offset="0.60693301"
         id="stop786" />
      <stop
         style="stop-opacity:1;stop-color:#6b89b3"
         offset="0.775281"
         id="stop788" />
      <stop
         style="stop-opacity:1;stop-color:#2e4978"
         offset="0.95629068"
         id="stop790" />
      <stop
         style="stop-opacity:1;stop-color:#2e4978"
         offset="0.97191"
         id="stop792" />
      <stop
         style="stop-opacity:1;stop-color:#2e4978"
         offset="0.97524281"
         id="stop794" />
      <stop
         style="stop-opacity:1;stop-color:#2e4978"
         offset="1"
         id="stop796" />
    </linearGradient>
    <linearGradient
       x1="0"
       y1="0"
       x2="1"
       y2="0"
       gradientUnits="userSpaceOnUse"
       gradientTransform="matrix(132.68066,0,0,-132.68066,452.52051,400.89062)"
       spreadMethod="pad"
       id="linearGradient812">
      <stop
         style="stop-opacity:1;stop-color:#2e4978"
         offset="0"
         id="stop814" />
      <stop
         style="stop-opacity:1;stop-color:#2e4978"
         offset="0.02809"
         id="stop816" />
      <stop
         style="stop-opacity:1;stop-color:#2e4978"
         offset="0.04370932"
         id="stop818" />
      <stop
         style="stop-opacity:1;stop-color:#6b89b3"
         offset="0.224719"
         id="stop820" />
      <stop
         style="stop-opacity:1;stop-color:#426aa4"
         offset="0.39306699"
         id="stop822" />
      <stop
         style="stop-opacity:1;stop-color:#426aa4"
         offset="0.41573"
         id="stop824" />
      <stop
         style="stop-opacity:1;stop-color:#195f94"
         offset="0.62368949"
         id="stop826" />
      <stop
         style="stop-opacity:1;stop-color:#195f94"
         offset="0.651685"
         id="stop828" />
      <stop
         style="stop-opacity:1;stop-color:#195f94"
         offset="0.6762297"
         id="stop830" />
      <stop
         style="stop-opacity:1;stop-color:#8fa9c5"
         offset="0.960674"
         id="stop832" />
      <stop
         style="stop-opacity:1;stop-color:#8fa9c5"
         offset="1"
         id="stop834" />
    </linearGradient>
  </defs>
  <sodipodi:namedview
     id="base"
     pagecolor="#ffffff"
     bordercolor="#666666"
     borderopacity="1.0"
     inkscape:pageopacity="0.0"
     inkscape:pageshadow="2"
     inkscape:zoom="0.19909581"
     inkscape:cx="1331.0576"
     inkscape:cy="1331.0174"
     inkscape:document-units="px"
     inkscape:current-layer="layer1"
     showgrid="false"
     fit-margin-top="0"
     fit-margin-left="0"
     fit-margin-right="0"
     fit-margin-bottom="0"
     inkscape:window-width="1366"
     inkscape:window-height="705"
     inkscape:window-x="-8"
     inkscape:window-y="-8"
     inkscape:window-maximized="1" />
  <metadata
     id="metadata7">
    <rdf:RDF>
      <cc:Work
         rdf:about="">
        <dc:format>image/svg+xml</dc:format>
        <dc:type
           rdf:resource="http://purl.org/dc/dcmitype/StillImage" />
        <dc:title></dc:title>
      </cc:Work>
    </rdf:RDF>
  </metadata>
  <g
     inkscape:label="Layer 1"
     inkscape:groupmode="layer"
     id="layer1"
     transform="translate(2548.2004,1324.3695)">
    <g
       transform="matrix(1.25,0,0,-1.25,-5966.1456,697.84118)"
       id="g5654">
      <g
         transform="matrix(16.051221,0,0,16.051221,-4529.1584,-5881.8274)"
         id="g760">
        <g
           id="g762">
          <g
             id="g768">
            <g
               id="g770">
              <path
                 inkscape:connector-curvature="0"
                 id="path798"
                 style="fill:url(#linearGradient772);stroke:none"
                 d="m 473.474,465.358 c -10.524,0 -19.078,-8.989 -19.078,-20.038 l 0,0 0,-88.858 c 0,-11.047 8.554,-20.036 19.078,-20.036 l 0,0 90.78,0 c 10.519,0 19.077,8.989 19.077,20.036 l 0,0 0,88.858 c 0,11.049 -8.558,20.038 -19.077,20.038 l 0,0 -90.78,0 z" />
            </g>
          </g>
        </g>
      </g>
      <g
         transform="matrix(16.051221,0,0,16.051221,-4529.1584,-5881.8274)"
         id="g800">
        <g
           id="g802">
          <g
             id="g808">
            <g
               id="g810">
              <path
                 inkscape:connector-curvature="0"
                 id="path836"
                 style="fill:url(#linearGradient812);stroke:none"
                 d="m 473.473,467.229 c -11.573,0 -20.952,-9.809 -20.952,-21.909 l 0,0 0,-88.856 c 0,-12.101 9.379,-21.912 20.952,-21.912 l 0,0 90.781,0 c 11.569,0 20.948,9.811 20.948,21.912 l 0,0 0,88.856 c 0,12.1 -9.379,21.909 -20.948,21.909 l 0,0 -90.781,0 z m -17.207,-110.765 0,88.856 c 0,10.015 7.718,18.166 17.207,18.166 l 0,0 90.781,0 c 9.483,0 17.202,-8.151 17.202,-18.166 l 0,0 0,-88.856 c 0,-10.019 -7.719,-18.166 -17.202,-18.166 l 0,0 -90.781,0 c -9.489,0 -17.207,8.147 -17.207,18.166" />
            </g>
          </g>
        </g>
      </g>
      <path
         style="fill:#ffff85;fill-opacity:1"
         id="path4-9"
         d="m 3978.6442,1073.3344 c -7.2421,-2.8048 -28.048,2.9362 -26.0759,-10.4085 23.9723,-10.4851 50.5641,-11.8766 75.0622,-20.4882 24.8269,-12.4572 42.9259,-34.6436 63.94,-52.26126 9.0061,-10.95622 18.6257,-21.50742 29.4176,-30.75449 38.9932,-38.62078 79.301,-80.93425 133.7535,-96.32777 14.5609,-3.81278 32.2336,-6.68332 45.1072,2.95818 18.7352,10.48513 27.883,33.64741 24.9906,54.38759 -0.055,17.60669 -14.0347,31.65227 -29.5049,37.99594 -61.1139,28.43145 -122.2604,57.21381 -185.2479,81.09841 -13.4652,4.777 -26.5038,11.1541 -40.5278,14.1233 -26.8867,10.7262 -56.0406,14.363 -84.0995,19.6768 l -6.8151,0 z m -355.039,-1.4364 c -42.2967,0.323 -82.8543,-15.7445 -121.5579,-31.5318 -44.0441,-15.8865 -88.4823,-32.299 -130.5214,-52.58996 -1.1504,-0.23 -2.2796,-0.4916 -3.3862,-0.7874 -33.6576,-17.61763 -84.0115,-27.9062 -90.8153,-71.64355 -0.2411,-1.56674 -0.2636,-3.22048 0.339,-4.72148 0.077,-13.66245 5.3682,-29.046 16.3573,-37.5371 0.2739,-0.2739 0.845,-0.79948 1.1298,-1.07338 3.5718,-7.74607 13.1575,-10.93467 20.9145,-13.22452 36.3748,-2.6295 70.6794,16.4244 98.1577,38.24925 12.3806,7.91041 24.3451,17.42043 33.8771,28.59581 9.2032,5.02891 16.0289,14.14418 23.0081,21.89025 8.4911,6.9134 16.9709,14.82271 23.0954,23.98213 23.9723,24.89259 49.5432,49.17205 78.7635,67.73195 12.6654,5.3795 24.9484,12.3034 38.7971,14.166 13.6405,2.0817 29.637,1.9725 39.3004,13.4985 -3.0349,4.2072 -9.862,2.9147 -14.2773,4.35 -4.4127,0.4026 -8.8062,0.6119 -13.1818,0.6453 z m 260.2759,-27.4008 c -12.5059,-0.3436 -8.0425,-16.7888 -0.8525,-22.9209 36.7583,-40.27516 94.8483,-40.17513 143.746,-54.52781 23.1506,-2.71715 41.9199,-17.49812 63.8544,-23.89657 8.6554,-2.57472 10.0349,8.34899 4.9183,12.67671 -56.7862,55.53717 -143.0228,51.72507 -208.9356,88.51617 -0.9888,0.1281 -1.8968,0.1753 -2.7306,0.1524 z m -164.8572,-0.7927 c -6.464,-0.1251 -15.2035,-4.3524 -18.778,-7.6865 -3.5279,-0.8546 -7.1877,-1.7759 -9.9925,-4.2301 -16.8397,-7.3078 -36.1217,-11.1309 -52.3041,-17.7594 -11.9642,-1.9064 -23.7648,-5.7636 -35.0497,-9.8503 -15.8537,-3.8676 -33.4932,-8.12856 -47.0571,-16.53196 -16.4124,-6.69427 -33.9199,-15.0334 -44.8761,-29.50661 -5.5987,-1.8516 -10.0804,-11.03294 -4.2079,-15.06484 5.1056,0.10956 12.6877,1.60005 15.7445,5.61004 19.0748,6.45323 39.136,18.15516 57.8712,21.9022 13.783,1.58865 29.9428,4.67798 41.6988,8.63319 18.4942,3.3307 38.413,6.71582 55.1322,15.37132 12.0081,4.5139 24.5974,10.69356 32.968,20.67466 7.5817,3.3965 11.9749,12.3693 16.3026,18.9321 1.2271,7.2188 -2.4244,9.6035 -7.4519,9.5062 z M 3242.2421,911.83929 c -5.5,-0.24104 -11.3178,-3.90009 -15.1196,-7.42801 -2.6843,-0.50398 -5.5007,-1.65439 -6.673,-4.32771 -13.1146,-7.17635 -24.5639,-20.60904 -28.3219,-35.24658 -10.3756,-18.55989 -9.2135,-43.93489 -4.4476,-64.9928 1.1066,-8.74309 3.6813,-18.21991 8.6555,-25.5606 2.5856,-8.10762 7.3619,-15.24091 12.1717,-22.17621 4.262,8.38153 9.9605,16.31429 13.6199,24.72869 10.4523,8.61161 17.9344,21.46428 27.6526,31.29203 12.6326,9.67437 24.4321,21.45201 40.4063,25.39626 -5.3357,6.72713 -14.176,12.88345 -20.454,19.65441 -5.3685,7.06678 -10.2892,15.70107 -16.6877,21.57362 -4.1305,12.16144 -11.087,23.75315 -10.8022,37.0869 z m 1118.9137,-0.71391 c -0.4647,0.0153 -0.9172,0.011 -1.3541,-0.0307 0.077,-1.24902 0.175,-2.50866 0.3065,-3.75767 -2.8377,-12.98315 -7.9655,-25.18973 -14.5393,-36.68283 -9.3018,-11.16442 -18.4394,-22.78769 -28.541,-33.21803 -12.523,-3.5827 4.8098,-7.83504 10.3536,-9.12787 29.6696,-17.73817 50.1577,-46.68392 67.6549,-75.82754 2.1474,0.81076 2.1255,4.30547 3.1773,6.2776 8.8965,13.16941 14.7365,29.64826 17.0592,45.45813 5.9273,22.74517 3.1338,49.79648 -9.5645,69.59442 -5.3795,9.97019 -12.6103,20.23586 -23.1502,25.12235 -4.5913,6.01914 -14.4307,11.9605 -21.4024,12.19222 z m -420.4323,-31.23045 c -1.1176,0.0548 -2.3953,-0.30064 -3.8106,-1.20859 -20.1047,-19.12961 -36.9006,-41.6012 -56.9725,-60.71986 -19.6665,20.1595 -50.115,22.18575 -76.7058,22.03236 -27.9056,0.43825 -60.0509,-0.93172 -81.1088,-21.98963 -18.5927,18.99814 -36.2432,39.11458 -54.4525,58.55096 -3.0239,4.84266 -13.7498,3.74671 -9.4549,-3.85693 15.273,-24.61869 40.483,-42.16008 53.1703,-68.60846 2.4323,-4.44824 -5.1717,-2.20111 -7.1986,-4.8087 -49.3798,-11.42737 -95.571,-38.43452 -132.1649,-73.24252 -9.1156,-6.17933 -16.9274,-14.75916 -23.6655,-23.40364 -11.767,-8.08572 -21.5516,-19.22712 -29.6263,-30.77501 -20.1814,-20.0828 -39.4741,-43.68224 -54.0349,-68.61866 -8.8855,-11.95326 -19.788,-31.14927 -12.0091,-44.74597 7.1435,-16.58776 25.2764,-25.26445 39.8482,-34.74161 45.348,-23.80793 94.0269,-41.19615 143.1657,-55.04485 42.5431,-15.03197 88.0656,-26.8874 132.9096,-35.92631 13.6843,-1.51196 27.7412,-5.78446 41.4146,-2.33324 9.0937,0.0767 18.2637,1.96117 26.9849,4.16338 53.4665,11.26302 106.3307,25.93376 157.9566,43.84723 28.7163,8.79787 59.4054,17.82615 85.1745,31.85014 l 0.8543,0.17465 c 24.2133,9.15942 51.0006,19.22887 66.2956,41.34954 13.2899,20.84974 -2.9357,45.34758 -15.5682,62.20925 -18.7462,28.59581 -42.422,53.98067 -66.5695,78.07346 -3.3526,7.07773 -10.5413,11.73491 -16.6329,16.20506 -7.5927,9.70723 -17.8693,17.62926 -27.478,25.13429 -35.7502,35.23529 -82.709,54.35362 -128.9225,71.6864 9.3676,26.09779 34.6995,42.25716 52.1637,62.60291 3.1068,3.9792 1.2806,11.90868 -3.5625,12.14435 z m -989.654,-34.61485 c -2.7609,-2.28985 -6.2792,-5.88285 -3.5949,-9.59701 21.1894,-35.38869 45.8422,-68.54262 71.0854,-101.14842 6.0588,-6.3108 20.0158,-6.85927 23.2479,2.6398 6.1355,12.99411 -5.0947,25.62623 -12.6545,35.36633 -24.027,26.27309 -51.9422,48.67938 -78.0839,72.7393 z m 1698.8896,-0.0767 c -0.183,8.8e-4 -0.3694,-0.011 -0.5615,-0.0219 -13.5967,-15.31684 -30.2505,-27.62005 -44.0116,-42.63011 -10.2331,-5.83968 -18.0007,-15.99678 -25.451,-24.91517 -10.8248,-10.51799 -25.134,-24.77109 -19.4148,-41.23833 6.1684,-10.30983 21.2873,-7.42801 26.9079,1.99437 24.6077,29.68047 45.1182,62.59173 66.4171,94.68258 3.1311,3.95893 1.7889,12.09252 -3.8861,12.1289 z m -369.4378,-41.16295 c -5.7003,-0.14418 -11.6088,-2.75659 -14.9758,-6.98975 -3.013,-0.41634 -5.5768,-2.04816 -7.6146,-4.22846 -11.3397,-4.89744 -22.6479,-10.50803 -33.889,-15.35069 -0.5697,-0.24104 -1.7192,-0.73308 -2.2889,-0.97412 -19.1077,-6.09167 -38.6218,-10.96786 -58.4087,-14.39717 -11.9971,-1.19423 -24.3664,-3.3307 -35.75,-6.4094 -10.8028,-2.43229 -21.4855,-9.72849 -28.1798,-17.92377 -15.7112,-8.87456 9.2146,-23.16249 14.1011,-31.34681 15.7331,-20.8607 33.5477,-41.20514 54.6494,-56.99309 8.5349,-8.04189 20.6416,-2.00598 30.6227,-1.21713 38.4565,9.51002 75.7625,23.95003 111.5894,40.62544 18.2531,7.62555 38.3801,16.11796 53.3792,27.64393 17.4971,2.44324 2.2795,21.53933 -2.0372,28.88001 -1.0409,5.45622 -3.8018,11.51502 -8.5459,14.51703 -12.6325,23.62168 -37.9418,42.39006 -65.2667,42.75161 -2.246,1.03395 -4.7942,1.47778 -7.3852,1.41237 z m -965.0349,-0.55646 c -7.9754,-0.10299 -15.7291,-2.00971 -22.6486,-6.37851 -10.3427,-2.78289 -20.0061,-10.16773 -26.4594,-18.48352 -16.8945,-15.02102 -28.1356,-36.18718 -36.9773,-56.82875 13.3118,-7.2859 24.9261,-18.03497 39.4322,-22.96528 29.6147,-14.85667 62.099,-26.97429 93.9379,-37.47037 3.9004,-2.5309 8.6229,-3.41835 13.1149,-4.32772 19.9842,-5.63151 46.7948,-21.02504 64.8507,-3.34166 2.8158,0.94224 4.6999,3.255 6.3324,5.59963 24.8378,19.78699 43.0587,47.15537 62.2212,72.39856 -0.8984,5.77395 -5.3692,11.26204 -11.1103,12.64253 -4.1195,5.93829 -13.4217,9.24707 -20.62,10.95625 -4.0867,5.98211 -14.4294,3.60559 -20.9264,5.3805 -18.6914,0.23008 -36.308,6.55151 -54.3858,10.22185 -12.1067,5.32474 -25.2549,8.62191 -37.4053,14.14386 -13.1893,10.18384 -31.8105,18.6803 -49.3562,18.45263 z m -240.5839,-77.09255 c -10.2403,-0.38183 -2.2559,-19.69977 -4.7282,-27.46425 15.9742,-17.8039 42.1384,-24.20312 64.0289,-32.96812 11.3726,-7.00104 28.9245,-11.94121 43.0581,-8.69816 10.3427,1.91734 9.7182,16.31319 2.7938,21.92279 -11.5698,10.18931 -27.282,13.35633 -41.2622,18.9988 -19.8308,9.45524 -39.8917,18.97479 -60.095,27.68501 -1.4812,0.39958 -2.736,0.56337 -3.7954,0.52393 z m 1454.8957,-0.65398 c -34.6217,-14.4732 -70.2504,-27.45669 -103.908,-43.84723 -13.5858,-1.29284 -11.9649,-25.79134 2.0919,-24.83815 24.4106,-1.5777 48.3603,11.70127 70.8973,20.87165 11.8546,5.28092 26.5798,10.06836 32.9783,22.16406 0.2958,7.68033 1.4027,19.44843 -2.0595,25.64967 z M 3235.6496,656.35185 c -1.7941,0 -3.5249,-0.5053 -5.1957,-1.51328 -6.9025,-1.97212 -10.0369,-11.09769 -14.5838,-16.36765 -2.005,-1.54483 -4.3599,-3.58412 -4.0641,-6.38892 15.4702,-9.78393 32.0474,-19.19458 50.421,-21.8679 l 0.8765,-0.0329 c 9.762,-3.64843 21.5065,-2.54262 29.9756,3.68053 6.3437,7.98711 7.5711,22.30692 -2.662,27.82887 -10.277,5.13848 -21.2671,9.37899 -32.7163,10.92382 -5.1276,2.6295 -10.9224,2.33434 -16.4773,2.23573 -1.9228,1.0025 -3.7799,1.50265 -5.5739,1.50134 z m 1128.2488,-0.0997 c -1.7288,-0.011 -3.5258,-0.35159 -5.3789,-1.11787 -17.8696,-1.85161 -48.416,-3.94392 -53.2148,-25.17713 -5.6315,-18.94335 20.2149,-26.77707 34.2828,-19.99515 11.2739,0.72311 22.6787,5.1823 32.3312,10.84668 7.6036,2.92532 15.1751,7.46055 20.8613,13.1578 -2.7281,4.18529 -6.8154,7.4944 -11.2746,9.66374 -3.908,6.28472 -10.1157,12.64822 -17.607,12.62193 z m 350.3944,-10.64126 c -6.9428,-0.1524 -13.3233,-3.06468 -19.9643,-5.05872 -5.2151,0.65737 -10.8579,-0.0657 -13.5532,-5.3908 -9.2032,-4.47015 -18.8882,-7.84566 -28.1353,-12.17338 -1.1613,0.46016 -5.1049,4.49239 -3.4615,1.44655 3.3526,-4.37154 -7.3304,0.034 -3.4957,-4.6667 -20.8388,-9.58672 -41.732,-19.34939 -62.0449,-30.00982 -10.277,-12.96125 2.4429,-36.62609 20.3564,-28.27742 42.2911,18.88857 77.6469,50.00333 115.2049,76.57223 l 0,7.17634 c -1.6721,0.30404 -3.3042,0.41689 -4.9064,0.38172 z m -1830.2652,-0.19513 0,-3.03532 c 0.5916,-2.58568 2.0163,-4.84124 4.2952,-6.26555 6.015,-4.99605 11.7992,-10.44163 18.7455,-14.1558 9.4114,-7.80085 18.5379,-16.49025 29.6366,-21.81499 3.3526,-2.91436 6.4748,-6.29875 10.6601,-8.04079 10.9782,-7.69129 21.5626,-16.58842 34.0636,-21.73785 11.0659,-9.59768 37.8648,-17.12363 39.7712,4.44922 6.3327,18.57084 -14.9772,20.68474 -26.5689,26.30529 -13.1256,6.62853 -26.712,12.3374 -40.4182,17.62927 -17.6396,7.82276 -35.6616,14.82314 -53.6189,21.81323 -4.7441,3.71417 -10.8142,4.13018 -16.5662,4.85329 z m 1348.6749,-22.01702 c -8.9162,0.0285 -17.5486,-1.15512 -25.3022,-5.61508 -11.8875,-5.28091 -9.5219,-26.24021 4.3706,-27.77409 20.1376,-5.63151 48.1759,-6.58361 62.7587,9.8179 4.7331,6.31079 4.8852,18.36267 -2.7733,22.13162 -12.386,-1.22951 -26.0226,1.39856 -39.0538,1.43965 z m -863.8369,-0.0307 c -7.0892,0.11592 -14.369,-0.88954 -21.5958,-1.4414 -1.3669,-0.023 -2.7064,-0.0866 -4.0076,-0.21058 -0.124,-0.0121 -0.2431,-0.0318 -0.3663,-0.0449 0,-2.2e-4 0,2.2e-4 -0.011,0 -3.6569,-0.15427 -7.2887,-0.12118 -10.8604,0.33044 -10.9672,-5.98211 -8.6551,-22.95269 1.2823,-28.60611 14.3526,-7.72416 32.0247,-8.13984 47.4731,-5.05017 1.731,-0.20817 3.7805,-0.95451 5.1939,0.51363 20.3567,-0.65738 21.8248,31.34681 0.986,32.16853 -1.5448,0.19721 -4.6464,0.56874 -6.2022,0.75499 -3.873,1.08741 -7.8534,1.5192 -11.8962,1.58526 z m 1151.4418,-42.5443 c -4.8251,0.0252 -10.5506,-1.05114 -14.0976,-1.66064 -19.4693,-0.0329 -39.8911,-1.34685 -57.9141,-9.43256 -11.9642,-3.56078 -14.8896,-21.46296 -5.0947,-28.84747 20.8279,-13.09272 47.1229,-2.82704 70.0105,-3.91171 15.4154,-0.0438 36.6921,4.61258 39.2011,22.73421 0.9203,13.3228 -13.2684,20.74084 -25.0573,19.54661 -1.5818,1.14624 -4.1528,1.55655 -7.0479,1.57156 z M 3080.86,580.18171 c -9.6802,0.10299 -18.9885,-1.38838 -25.8704,-7.52552 -4.6236,-1.753 -4.854,-7.78989 -4.5143,-11.88753 0.1862,-11.42737 11.6345,-16.74181 20.9692,-19.82051 24.7064,-6.39845 54.0814,-9.14891 77.6045,-4.51442 l 0.9415,0.0548 c 10.5947,-0.0548 18.7907,13.97031 13.5755,21.37673 -3.1445,10.03593 -14.8909,13.96955 -24.3023,15.9088 -8.5459,2.96915 -17.9234,4.39313 -27.05,4.36026 -8.9345,-0.23282 -20.3827,1.93093 -31.3537,2.0474 z m 1299.6371,-21.81313 c -21.6824,-0.98606 -44.7669,-1.1618 -64.1814,-12.23857 -6.4313,-5.62055 -12.0957,-16.74005 -6.7928,-24.80385 8.3596,-11.36163 26.6236,-9.58704 38.6207,-7.52727 20.0281,-0.18625 42.4996,4.27327 56.447,19.85305 0.5916,4.19625 -3.615,7.07774 -6.3102,9.53194 -4.2291,6.24506 -9.2374,15.37096 -17.7833,15.1847 z m -1158.863,-0.16434 c -8.1514,-3.24305 -13.1372,-12.76337 -17.5745,-19.73155 -13.4104,-6.5847 4.591,-16.31495 12.1289,-18.2542 10.5838,-4.97414 22.6575,-7.13175 34.3479,-6.58394 7.4064,-2.71715 17.2345,-1.68759 24.9477,0.0877 l 0.8765,-0.10956 c 13.257,-2.64046 22.6794,15.41544 14.1883,23.72027 -0.6574,6.19028 -7.3417,10.62724 -13.2142,11.15314 -15.9742,8.35961 -37.4475,5.78522 -55.7006,9.71852 z m 1040.1007,-15.61616 c -3.2825,-0.0285 -7.0072,-0.83027 -7.0257,-1.66228 -1.753,0.0219 -3.5283,0.15382 -5.2265,-0.25156 -31.9703,-3.73608 -68.6186,-4.8752 -95.5162,-24.13629 -12.9394,-15.84273 10.7036,-20.2913 22.0323,-17.00442 1.249,-0.32869 2.4984,-0.36123 3.7474,-0.0877 15.8975,-0.79981 32.0364,0.10846 47.7367,2.25633 l 0.8868,-0.19689 c 15.8975,1.23806 32.0915,2.6192 47.485,6.94692 2.4652,3.88947 2.6953,8.65577 2.5748,13.11496 1.2161,7.50503 -1.862,20.57584 -11.7883,19.33778 -0.068,1.26063 -2.3533,1.70501 -4.9063,1.68277 z m -915.9133,-1.4448 c -5.1009,0.0307 -10.178,-0.0515 -15.2069,-0.21748 -7.012,-10.02497 -12.4788,-28.70395 2.1039,-34.80658 30.064,-3.95521 60.4241,-7.65842 90.7948,-6.57375 7.4941,-0.27391 17.3543,-2.46658 23.5885,1.99261 6.8147,0.0876 5.1826,10.0264 0.8987,12.85311 -29.6038,20.81271 -66.4727,26.53483 -102.179,26.75209 z m 141.1388,-64.49812 c -7.6172,0.13443 -14.1665,-1.77382 -16.0168,-9.01667 -5.1713,-8.32674 -3.3751,-29.14318 8.6658,-28.24477 16.4124,-3.26496 33.5155,-0.96382 50.147,-1.18294 10.8467,-0.36156 40.6371,-8.00869 33.7128,12.67671 -12.0738,14.17738 -31.5663,20.09266 -49.5565,22.11957 -5.602,-0.0745 -17.1589,3.47532 -26.9523,3.6481 z m 635.9485,-1.86936 c -0.4843,0.011 -0.9861,0 -1.5047,-0.046 -26.0321,-0.94224 -54.2879,-3.60592 -77.3837,-16.74247 -12.2929,-6.02593 -4.8755,-25.713 8.3268,-20.07053 1.2161,-0.2739 2.4326,-0.23008 3.6378,0.16435 14.7361,0.20816 30.283,-1.84131 44.5371,1.21548 8.9184,1.36953 25.6702,-6.22315 29.0666,4.32772 6.9627,6.8035 8.332,30.85071 -6.6799,31.15168 z m 51.3643,-5.95581 c -10.5926,0.14254 -17.7631,-11.10416 -15.8369,-21.35099 l -0.3509,-0.82172 c -0.1096,-4.63449 2.6085,-9.50926 7.4622,-10.36385 22.6136,-5.37951 46.0159,-6.56279 69.1664,-7.17634 13.3338,-0.63546 29.9318,14.51626 21.868,28.16775 -24.027,12.75307 -52.9183,6.16837 -78.9175,11.12059 -1.1628,0.27226 -2.2955,0.40987 -3.3913,0.42456 z m -761.6544,-0.54782 c -19.804,0.20138 -41.4267,-6.73425 -61.0657,-7.75319 -15.9742,-1.42431 -5.5436,-24.67456 4.8977,-26.96442 11.9314,-9.43333 32.9229,-1.99404 47.5605,-2.08169 11.9642,0.0986 24.2461,2.12552 35.553,6.24507 8.8965,7.78989 3.9114,25.59456 -7.8885,27.48999 -6.0561,2.13647 -12.4557,2.99719 -19.057,3.06424 z m 896.5789,-18.44243 c -1.1367,-0.0701 -1.5808,-2.1471 -2.0526,-3.0729 -5.7191,-4.42632 -8.1182,-11.73272 -12.0844,-17.55049 -1.4572,-1.68726 -3.3851,-3.17731 -3.9768,-5.42334 20.5868,-16.85071 39.7925,-35.44346 59.9958,-52.69955 5.0727,-5.46717 9.6421,-11.9101 16.4241,-15.38323 5.237,-6.76001 12.5233,-11.83352 19.6339,-16.47897 7.3735,-7.15443 16.5217,-13.26758 26.3275,-16.52158 0.6136,-0.18626 1.8516,-0.55844 2.4652,-0.7447 5.4562,-4.89744 16.4785,-4.58004 22.9756,-0.40571 11.1096,21.79198 -14.54,39.50823 -28.9913,51.38481 -8.502,10.80286 -20.3892,19.40351 -31.3674,27.77409 -20.4772,19.21726 -44.2636,34.64365 -68.444,48.81008 -0.3451,0.23622 -0.6433,0.3277 -0.9056,0.31149 z M 3291.9732,449.5302 c -35.0928,-19.31587 -66.1648,-45.02065 -95.4289,-72.18119 -12.2381,-13.01603 -28.6629,-23.31381 -35.149,-40.7452 -0.7888,-12.02996 12.5449,-23.55626 23.8299,-15.96358 48.7553,25.73623 83.454,70.426 127.1147,103.21805 -5.7192,8.65544 -12.3358,20.35814 -20.3667,25.67192 z m 703.4254,-6.91789 c -6.4359,0.11668 -13.4368,-2.2296 -17.7731,-4.95934 -14.4403,-3.46218 -27.0835,-13.69608 -36.1333,-25.18919 -8.8198,-11.10963 -3.6817,-34.97158 12.6322,-34.52237 11.0439,-3.08966 24.5304,2.72811 33.0982,9.58672 3.0677,0.51494 5.1278,2.93693 6.7603,5.41304 12.9065,8.37058 19.8647,27.18245 14.9124,42.18156 -2.5781,5.36681 -7.8179,7.3867 -13.4967,7.48958 z m -387.0945,-0.52206 c -3.0714,-0.0186 -6.0143,-0.54924 -8.6914,-1.73076 -11.8656,-5.6096 -9.1152,-24.39924 -2.2785,-33.06563 1.8954,-6.9134 7.6471,-12.23912 13.1252,-16.5011 12.534,-12.9722 35.1148,-19.40351 50.7822,-8.1624 10.2441,12.40247 4.4705,31.48782 -9.4001,38.54364 -3.1444,3.67034 -7.5492,6.17932 -11.9646,7.8885 -7.9946,6.63368 -20.6034,13.09458 -31.5728,13.02775 z m 278.566,-36.5289 c -1.2477,-0.0175 -2.5612,-0.18659 -3.9391,-0.52547 -9.9044,-0.12051 -21.2886,-0.43825 -30.2837,-2.13646 -26.4155,-1.85161 -52.7766,-4.22879 -79.2359,-2.44292 -0.6355,0.0438 -1.917,0.13071 -2.5525,0.17453 -10.6057,2.78289 -22.5141,1.1847 -33.5142,2.17077 -0.7231,-0.0876 -2.1587,-0.27533 -2.8708,-0.36298 -22.2193,11.54788 -44.7676,-15.22809 -28.4538,-34.55492 38.5222,-9.02795 79.2474,-13.19165 118.646,-9.11592 12.786,1.753 25.9217,2.22444 38.4667,4.84299 9.4223,0.51494 18.8331,1.65373 28.0582,3.68064 18.2422,4.77616 14.3951,38.53696 -4.3209,38.26974 z m 205.7669,-13.96922 c -3.6826,-0.0625 -7.1016,-0.67337 -9.8092,-1.85051 -6.1027,-1.00798 -21.1672,-5.55482 -14.4948,-13.25706 7.1106,-11.17538 0.5475,-23.83017 1.1282,-35.79439 -3.2321,-14.276 24.8919,-17.51937 32.8242,-12.40281 12.8627,5.10562 15.8647,22.36236 16.3796,34.66623 10.8159,18.88101 -10.0701,28.90916 -26.028,28.63854 z m -586.0172,-0.14035 c -8.6759,-0.0186 -17.1499,-2.73052 -23.8983,-9.15011 -0.997,-19.25013 2.5309,-39.7278 13.0927,-56.28269 7.7899,1.27093 15.9191,1.24901 23.4789,3.56078 10.7481,-0.26295 20.554,8.18432 13.038,19.88559 -0.011,11.1206 0.7221,22.16449 2.3436,33.14266 -8.1313,5.42476 -18.2221,8.86459 -28.0549,8.84377 z m 518.7236,-8.91904 c -3.3529,0.0131 -6.6487,-0.51593 -9.5028,-1.54582 -20.1485,-1.51196 -18.5602,-30.43613 -2.1587,-37.39335 13.9364,-10.33174 38.1938,6.49706 33.0553,23.0629 -0.7559,10.92065 -11.3349,15.8377 -21.3938,15.87627 z m -446.6896,-0.23622 c -2.7933,-0.0274 -5.5296,-0.31225 -8.0084,-0.73955 -18.5051,-3.21018 -19.6349,-34.9169 -1.9515,-40.38407 16.9931,-5.55482 39.2672,13.5738 31.2253,31.26815 -3.9936,7.6995 -12.8854,9.93808 -21.2654,9.85547 z m 582.9819,-21.28251 c -13.2789,-5.44526 -23.4905,-19.03177 -27.3033,-32.63943 -15.4592,-20.34576 12.9619,-38.71796 31.8176,-36.06655 5.1495,-0.59164 10.6711,0.19579 15.1522,3.03346 6.5628,2.49802 19.7867,7.19825 15.207,16.32481 -3.1007,7.64746 -6.8361,16.39197 -12.117,21.89201 -4.6893,10.55086 -11.1209,23.66483 -22.7565,27.4557 z m -721.0204,-0.65059 c -2.6708,-0.12238 -5.2517,-1.19423 -7.5478,-3.54533 -5.2152,-3.47313 -9.4662,-9.32486 -10.9015,-15.51514 -6.2999,-11.67936 -17.6064,-25.61527 -14.1113,-39.8584 14.3417,-16.73019 42.2025,-9.42237 57.5083,2.90341 10.4523,7.31877 6.3772,23.63263 0.045,31.44443 -0.1973,1.68727 -0.4283,3.5392 -1.9293,4.56909 -2.8504,8.765 -13.5244,20.4391 -23.0629,20.00194 z m -288.1339,-54.52618 c -1.9852,0.034 -3.9795,-0.28552 -5.8428,-1.00655 -2.6953,-0.64642 -6.3556,-0.89841 -7.3527,-4.05381 -11.7341,-23.47924 -9.4658,-50.35525 -11.8105,-75.72992 0.263,-17.33278 -2.5521,-36.48398 5.4131,-52.56775 14.3746,37.85384 23.0626,77.79966 33.5039,116.91347 3.1246,9.50718 -5.3084,16.29611 -13.911,16.44456 z m 1298.2726,-0.23797 c -6.5215,0.08 -13.3804,-3.14126 -13.1954,-10.23543 1.753,-14.13356 5.2686,-29.86718 9.9907,-42.64216 5.522,-25.21033 12.0738,-50.38702 18.6257,-75.38918 11.0439,-11.13155 8.8971,17.60669 9.7955,22.73422 2.9034,1.38048 1.4569,12.17206 -0.022,13.18003 -2.2241,28.58486 3.0017,65.24479 -15.4158,88.76786 -2.0749,2.30081 -5.8655,3.53678 -9.7784,3.58466 z M 3419.831,266.70974 c -5.1814,0.15273 -9.7364,-3.75251 -13.2348,-7.44674 -5.4234,-3.61556 -9.7498,-9.37757 -11.8534,-15.38159 -8.4472,-9.48811 -11.8012,-24.62997 -11.9217,-37.32827 -3.254,-13.92539 -0.7875,-34.5892 13.7843,-41.71076 11.1644,-3.42931 23.5556,-5.87332 35.0925,-3.00278 11.537,-0.90937 15.9636,12.52332 19.634,21.05824 5.7082,7.31877 7.8005,18.96493 10.0575,28.08053 5.237,12.42439 7.4276,26.84281 8.6109,40.319 10.6495,23.89557 -23.4132,7.86658 -36.0786,13.4214 -2.509,2.49803 -7.3297,0.59306 -10.4084,1.1847 -1.2573,0.51976 -2.4867,0.7711 -3.6823,0.80627 z m 756.6213,-0.29779 c -14.8778,-0.22668 -30.4426,-4.08087 -45.4067,-2.79899 0.022,-8.40345 2.488,-16.65317 4.4492,-24.73888 4.5468,-19.90751 8.3593,-42.08405 18.4938,-59.4497 1.6106,-18.61467 23.3149,-20.30051 37.6895,-18.53655 9.4662,-0.82172 21.0689,2.28876 23.7203,12.75198 0.7231,0.88745 0.9316,1.90605 0.6248,3.0455 8.7869,31.17053 0.2945,71.99461 -29.3969,89.19592 -3.3444,0.44165 -6.7406,0.58298 -10.174,0.53072 z m 42.7482,-111.4405 c -12.8078,-4.80979 -24.7505,-13.41077 -37.8761,-18.42873 -10.9452,-5.18231 -30.7106,-3.20033 -28.5084,-19.84287 0.5259,-19.786983 -16.5333,-43.922834 0.8542,-60.324338 9.7182,-14.232167 23.7748,-25.834834 40.1324,-31.553996 l 6.6405,0 c 2.5199,0.679287 4.8862,1.818737 7.1541,3.122531 l 0.7344,0.40571 c 6.6833,2.498024 12.0412,7.505359 14.5941,14.155802 8.1404,10.846686 12.3576,24.059593 15.3815,37.119441 5.3905,25.30894 -0.3386,56.69892 -19.1067,75.34645 z m -833.6951,-0.34074 c -6.1903,-3.90042 -9.5313,-10.61616 -13.103,-16.7407 -14.6047,-29.75718 -11.9868,-69.364786 6.6388,-96.843057 4.8755,-8.239099 12.8852,-14.439568 22.3952,-16.225437 l 5.598,0 c 3.0239,0.547812 6.0485,1.282538 8.5356,3.167013 21.3866,7.85563 42.8177,28.714903 38.9939,53.322638 -2.2569,14.94432 -4.1311,29.943763 -6.673,44.833303 -0.1534,3.00201 -3.9548,2.2468 -6.0037,3.11234 -20.1266,5.12752 -39.312,13.49733 -56.3818,25.3739 z"
         inkscape:connector-curvature="0" />
    </g>
  </g>
</svg>
